<svg xmlns="http://www.w3.org/2000/svg" width="916.432" height="916.432"><path d="M701.966 327.416c-8.899-26-31.2-45.8-58.7-51-21.3-63.9-81.699-110-152.8-110-72.4 0-133.701 47.8-153.9 113.6-12.601-3.2-25.9-4.8-39.5-4.8-72.4 0-133.601 47.5-153.9 113.5h638.6c-7.5-35-38.5-61.4-75.8-61.4-1.3 0-2.7 0-4 .1zM825.166 447.116c-4.9-14.101-18.2-23.4-33.1-23.4H124.065c-14.9 0-28.2 9.3-33.1 23.4l-89 256.399c-7.9 22.7 9 46.5 33.1 46.5h846.301c24.1 0 41-23.8 33.1-46.5l-89.3-256.399zm-154 184.699c0 30.5-24.7 55-55.2 55-24.1 0-44.5-15.1-52.1-37.1h-208.5c-7.601 22-28 37.1-52.101 37.1-30.5 0-55.2-24.6-55.2-55.1 0-14.8 5.9-28.2 15.4-38.1l2.4-2.4c-10.8-10.1-17.7-24.5-17.7-40.6 0-30.5 24.7-55 55.2-55 24.1 0 44.5 15.1 52.1 37.1h208.5c7.601-22 28-37.1 52.101-37.1 30.5 0 55.199 24.6 55.199 55.1 0 16-6.899 30.4-17.8 40.5 10.801 10.1 17.701 24.501 17.701 40.6z"/></svg>